<svg id="Layer_1" data-name="Layer 1" xmlns="http://www.w3.org/2000/svg" viewBox="0 0 34.61 33.71"><defs><style>.cls-1{fill:#fff;fill-rule:evenodd;}</style></defs><path class="cls-1" d="M17.3,1a16.29,16.29,0,0,0-5.15,31.74c.82.15,1.12-.35,1.12-.78s0-1.41,0-2.77C8.71,30.14,7.76,27,7.76,27A4.3,4.3,0,0,0,6,24.59c-1.48-1,.11-1,.11-1a3.46,3.46,0,0,1,2.5,1.68,3.46,3.46,0,0,0,4.74,1.35,3.38,3.38,0,0,1,1-2.17C10.71,24,6.91,22.65,6.91,16.4A6.32,6.32,0,0,1,8.59,12a5.82,5.82,0,0,1,.16-4.31s1.36-.44,4.48,1.67a15.37,15.37,0,0,1,8.15,0c3.11-2.11,4.48-1.67,4.48-1.67A5.82,5.82,0,0,1,26,12a6.32,6.32,0,0,1,1.67,4.37c0,6.26-3.8,7.64-7.43,8a3.92,3.92,0,0,1,1.1,3c0,2.18,0,3.93,0,4.47s.3.94,1.12.78A16.29,16.29,0,0,0,17.3,1Z"/></svg>